# xmcd
#
# Track frame offsets: 
#        150
#        17817
#        31765
#        45641
#        64373
#        76855
#        98733
#        110240
#        129221
#        139802
#        154719
#        169857
#        183433
#        195707
#        207791
#        221048
#        236634
#        250188
#        260949
#        273205
#        283590
#        293769
#
# Disc length: 4093 seconds
#
# Revision: 2
# Processed by: cddbd v1.5.2PL0 Copyright (c) Steve Scherf et al.
# Submitted via: ExactAudioCopyFreeDBPlugin 1.0
#
DISCID=460ffb16
DTITLE=The Sweet Inspirations - Songs of Faith and Inspiration and What Th
DTITLE=e World Needs Now Is Love
DYEAR=2002
DGENRE=Soul
TTITLE0=What a Friend
TTITLE1=I Shall Know Him
TTITLE2=Swing Low
TTITLE3=Guide Me
TTITLE4=Looking on the Bright Side
TTITLE5=He'll Fight
TTITLE6=Without a Doubt
TTITLE7=The 23rd Psalm
TTITLE8=Down By the Riverside
TTITLE9=Pilgrims of Sorrow
TTITLE10=Alfie
TTITLE11=What the World Needs Now is Love
TTITLE12=To Love Somebody
TTITLE13=Watch the One Who Brings You the News
TTITLE14=Am I Ever Gonna See My Baby Again
TTITLE15=Unchained Melody
TTITLE16=You Really Didn't Mean It
TTITLE17=Just Walk in My Shoes
TTITLE18=Where Did it Go
TTITLE19=I Could Leave You Alone
TTITLE20=That's How Strong My Love Is
TTITLE21=I Don't Want to Go on Without You
EXTD=
EXTT0=
EXTT1=
EXTT2=
EXTT3=
EXTT4=
EXTT5=
EXTT6=
EXTT7=
EXTT8=
EXTT9=
EXTT10=
EXTT11=
EXTT12=
EXTT13=
EXTT14=
EXTT15=
EXTT16=
EXTT17=
EXTT18=
EXTT19=
EXTT20=
EXTT21=
PLAYORDER=
